# xmcd
#
# Track frame offsets: 
#        150
#        7205
#        17472
#        31152
#        46982
#        62280
#        79680
#        94667
#        110277
#        125252
#        141182
#        165347
#
# Disc length: 2527 seconds
#
# Revision: 1
# Processed by: cddbd v1.5.2PL0 Copyright (c) Steve Scherf et al.
# Submitted via: ExactAudioCopyFreeDBPlugin 1.0
#
DISCID=8409dd0c
DTITLE=Windy City - Let Me Ride
DYEAR=1977
DGENRE=Soul
TTITLE0=Introduction Windy City Theme
TTITLE1=(So You Thing) Somethin's Missin'
TTITLE2=Win Or Lose
TTITLE3=Gimme Some
TTITLE4=Feeling Like I Don't Belong
TTITLE5=Let Me Ride
TTITLE6=Learnin'
TTITLE7=Good Guys Don't Always Win
TTITLE8=Fool Or Your Man
TTITLE9=I've Got Mine
TTITLE10=If By Chance
TTITLE11=Can You Feel It
EXTD=YEAR: 1977
EXTT0=
EXTT1=
EXTT2=
EXTT3=
EXTT4=
EXTT5=
EXTT6=
EXTT7=
EXTT8=
EXTT9=
EXTT10=
EXTT11=
PLAYORDER=
